<svg width="47" height="47" viewBox="0 0 47 47" fill="none" xmlns="http://www.w3.org/2000/svg">
<g clip-path="url(#clip0_0_81)">
<path d="M23.5 1.56055C35.6172 1.56055 45.4211 11.3645 45.4211 23.4633C45.4211 35.5621 35.6172 45.3844 23.5 45.3844C11.3828 45.3844 1.5789 35.5805 1.5789 23.4816C1.5789 11.3828 11.3828 1.56055 23.5 1.56055Z" fill="#E74D89"/>
<path d="M23.5 46.9449C10.5383 46.9449 0 36.425 0 23.4816C0 10.5199 10.5383 0 23.5 0C36.4617 0 47 10.5199 47 23.4633C47 36.4066 36.4617 46.9449 23.5 46.9449ZM43.3098 26.6762C42.6305 26.4559 37.1043 24.8219 30.807 25.8133C33.4324 33.0102 34.4973 38.8852 34.6992 40.0969C39.2156 37.0676 42.4285 32.2574 43.3098 26.6762ZM31.3395 41.9512C31.0457 40.1887 29.8707 34.0566 27.0617 26.7496C27.025 26.768 26.9699 26.7863 26.9332 26.7863C15.6055 30.7336 11.548 38.573 11.1809 39.3074C14.5773 41.9512 18.8551 43.5301 23.5 43.5301C26.2723 43.5484 28.9344 42.9793 31.3395 41.9512ZM8.59219 36.9023C9.05117 36.1312 14.559 27.025 24.9137 23.6652C25.1707 23.5734 25.4461 23.5 25.7031 23.4266C25.2074 22.2883 24.6566 21.15 24.0691 20.0301C14.0449 23.0227 4.31445 22.8941 3.4332 22.8758C3.4332 23.0777 3.41484 23.2797 3.41484 23.4816C3.4332 28.6406 5.3793 33.3406 8.59219 36.9023ZM3.85547 19.3875C4.75508 19.4059 13.0168 19.4426 22.4168 16.9457C19.0938 11.034 15.4953 6.07695 14.9812 5.36094C9.34492 8.00469 5.15898 13.182 3.85547 19.3875ZM18.8 4.00234C19.3508 4.73672 23.0043 9.69375 26.2906 15.734C33.4324 13.0535 36.4434 9.01445 36.8105 8.50039C33.2672 5.36094 28.6039 3.45156 23.5 3.45156C21.8844 3.45156 20.3055 3.65352 18.8 4.00234ZM39.032 10.8137C38.6098 11.3828 35.25 15.6973 27.8328 18.7266C28.2918 19.6812 28.7508 20.6543 29.173 21.6273C29.3199 21.9762 29.4668 22.325 29.6137 22.6555C36.2965 21.8109 42.9242 23.1695 43.5852 23.298C43.5301 18.5797 41.841 14.2285 39.032 10.8137Z" fill="#B2215A"/>
</g>
<defs>
<clipPath id="clip0_0_81">
<rect width="47" height="47" fill="white"/>
</clipPath>
</defs>
</svg>
