<svg width="47" height="47" viewBox="0 0 47 47" fill="none" xmlns="http://www.w3.org/2000/svg">
<g clip-path="url(#clip0_0_56)">
<path d="M44.406 47.0002C45.8384 47.0002 47 45.8388 47 44.4062V2.594C47 1.16123 45.8384 0 44.406 0H2.594C1.16105 0 0 1.16123 0 2.594V44.4062C0 45.8388 1.16105 47.0002 2.594 47.0002H44.406Z" fill="#395185"/>
<path d="M32.4291 47.0002V28.7992H38.5385L39.4532 21.7061H32.4291V17.1772C32.4291 15.1235 32.9995 13.724 35.9445 13.724L39.7007 13.7223V7.37826C39.0508 7.29179 36.8212 7.09865 34.2274 7.09865C28.8117 7.09865 25.1042 10.4043 25.1042 16.475V21.7061H18.9792V28.7992H25.1042V47.0002H32.4291Z" fill="white"/>
</g>
<defs>
<clipPath id="clip0_0_56">
<rect width="47" height="47" fill="white"/>
</clipPath>
</defs>
</svg>
