<svg width="47" height="47" viewBox="0 0 47 47" fill="none" xmlns="http://www.w3.org/2000/svg">
<path d="M0 14.1V15.3866H9.15031V14.1H0ZM10.4428 14.1V15.3866H23.4794C23.4794 15.3866 22.1473 14.1 20.3848 14.1H10.4428ZM26.038 14.1V15.3866H33.9252L33.4552 14.1H26.038ZM39.5799 14.1L39.1099 15.3866H46.9236V14.1H39.5799ZM0 16.6013V17.8879H9.15031V16.6013H0ZM10.4428 16.6028V17.8879H24.9923C24.9923 17.8879 24.8219 16.898 24.5267 16.6028H10.4428ZM26.038 16.6028V17.8879H34.7917L34.3585 16.6028H26.038ZM38.6443 16.6028L38.211 17.8879H46.928V16.6028H38.6443ZM2.64375 19.1026V20.3907H6.60497V19.1026H2.64375ZM13.0866 19.1026V20.3907H17.0375V19.1026H13.0866ZM20.9003 19.1026V20.3907H24.863C24.863 20.3907 25.1127 19.7106 25.1127 19.1026H20.9003ZM28.6788 19.1026V20.3907H35.6906L35.2206 19.1026H28.6788ZM37.7924 19.1026L37.3224 20.3907H44.3563V19.1026H37.7924ZM2.64375 21.6053V22.8919H6.60497V21.6053H2.64375ZM13.0866 21.6053V22.8919H23.2209C23.2209 22.8919 24.0669 22.231 24.3372 21.6053H13.0866ZM28.6817 21.6053V22.8919H32.643V22.1781L32.8927 22.8934H40.1483L40.4185 22.1781V22.8934H44.3563V21.6068H36.9185L36.5219 22.6966L36.1254 21.6068L28.6817 21.6053ZM2.64375 24.1081V25.3947H6.60497V24.1081H2.64375ZM13.0866 24.1081V25.3947H24.3225C24.0522 24.7705 23.2063 24.1081 23.2063 24.1081H13.0866ZM28.6817 24.1081V25.3947H32.643V24.1081H28.6817ZM33.3641 24.1081L33.8429 25.3947H39.2847L39.7253 24.1081H33.3641ZM40.4229 24.1081V25.3947H44.3563V24.1081H40.4229ZM2.64375 26.6093V27.896H6.60497V26.6093H2.64375ZM13.0866 26.6093V27.896H17.0375V26.6093H13.0866ZM20.9003 26.6093V27.896H25.1156C25.1156 27.2894 24.8659 26.6093 24.8659 26.6093H20.9003ZM28.6788 26.6093V27.896H32.64V26.6093H28.6788ZM34.2601 26.6093L34.7242 27.896H38.3726L38.8426 26.6093H34.2601ZM40.42 26.6093V27.896H44.3563V26.6093H40.42ZM0.0734375 29.1106V30.3987H9.22375V29.1106H0.0734375ZM10.4472 29.1106V30.3987H24.5325C24.8292 30.105 24.9981 29.1106 24.9981 29.1106H10.4472ZM26.1129 29.1106V30.3987H32.6342V29.1106H26.1129ZM35.1531 29.1106L35.6304 30.3987H37.4869L37.9349 29.1106H35.1531ZM40.4112 29.1106V30.3987H47V29.1106H40.4112ZM0.0734375 31.6134V32.9H9.22375V31.6134H0.0734375ZM10.4472 31.6134V32.8985H20.3907C22.1532 32.8985 23.4868 31.6134 23.4868 31.6134H10.4472ZM26.1129 31.6134V32.9H32.6342V31.6134H26.1129ZM36.0563 31.6134L36.5161 32.8956L36.5954 32.8971L37.0624 31.6119L36.0563 31.6134ZM40.4097 31.6134V32.9H47V31.6134H40.4097Z" fill="#1F70C1"/>
</svg>
