<svg width="47" height="47" viewBox="0 0 47 47" fill="none" xmlns="http://www.w3.org/2000/svg">
<path d="M45.5763 14.8246C45.1992 14.8246 44.8376 14.9744 44.571 15.241C44.3043 15.5076 44.1545 15.8693 44.1545 16.2463C44.1545 16.6234 44.3043 16.985 44.571 17.2517C44.8376 17.5183 45.1992 17.6681 45.5763 17.6681C45.9534 17.6681 46.315 17.5183 46.5816 17.2517C46.8483 16.985 46.998 16.6234 46.998 16.2463C46.998 15.8693 46.8483 15.5076 46.5816 15.241C46.315 14.9744 45.9534 14.8246 45.5763 14.8246ZM45.5763 15.0361C46.2421 15.0361 46.7905 15.5844 46.7905 16.2483C46.7901 16.4879 46.7187 16.722 46.5854 16.921C46.452 17.1201 46.2627 17.2751 46.0412 17.3666C45.8198 17.4581 45.5762 17.482 45.3413 17.4352C45.1063 17.3883 44.8905 17.2729 44.7211 17.1035C44.5517 16.9341 44.4363 16.7183 44.3894 16.4833C44.3426 16.2483 44.3664 16.0048 44.4579 15.7833C44.5494 15.5619 44.7045 15.3726 44.9036 15.2392C45.1026 15.1059 45.3367 15.0345 45.5763 15.0341V15.0361ZM15.935 15.1418C14.1725 15.1418 12.8995 16.3012 12.7253 18.3555H11.3642V19.3777H12.7057C12.7115 22.6403 12.7018 25.9068 12.7018 29.1655H14.2253C14.2195 25.9029 14.2214 22.6403 14.2214 19.3777H17.6446C16.3795 20.4039 15.555 22.0665 15.555 23.9485C15.555 27.0681 17.8208 29.5963 20.6115 29.5963C23.404 29.5963 25.6679 27.0681 25.6679 23.9485C25.6679 23.5764 25.6346 23.2121 25.5739 22.8616C26.0752 23.6704 27.0387 24.062 28.3312 24.6202C29.8548 25.2664 30.7067 25.8285 30.7067 26.79C30.7067 27.9415 29.6178 28.5427 28.3919 28.5329C27.1954 28.5329 26.2613 28.0453 25.2194 27.1033V28.9128C25.8559 29.3221 26.839 29.5552 27.9023 29.5552C29.2418 29.5493 31.9992 29.0656 31.9992 26.273C31.9894 24.5967 30.599 23.876 29.0891 23.22C27.2502 22.3093 26.5491 22.1174 26.5667 21.0756C26.5667 19.6852 27.777 19.27 28.7209 19.27C29.1322 19.27 29.4847 19.3288 29.8156 19.4384C30.4345 19.6734 30.6381 20.1336 30.8594 20.635C31.8934 23.0555 32.8843 25.4936 33.8929 27.9258C33.4514 28.9349 32.9832 29.932 32.4888 30.9162L32.4809 30.9358L32.1676 31.5174L31.8151 32.1754H33.3073C33.9575 30.738 36.7207 24.0111 37.316 22.562C37.7077 23.6058 38.6575 24.0248 40.1165 24.6554C41.64 25.2997 42.4939 25.8618 42.4939 26.8233C42.4939 27.9768 41.405 28.574 40.1811 28.5643C38.9375 28.5643 37.976 28.0375 36.8872 27.023L36.7892 26.9428V28.7855C37.3963 29.2947 38.493 29.5885 39.6915 29.5885C41.031 29.5845 43.7864 29.1008 43.7864 26.3083C43.7785 24.6319 42.3862 23.9073 40.8763 23.2533C39.0394 22.3407 38.4088 22.1488 38.4284 21.105C38.4284 19.7165 39.5623 19.2994 40.5042 19.2994C41.5793 19.2994 42.2589 19.6989 43.2067 20.3863V18.7687C42.4759 18.504 41.7023 18.3778 40.9253 18.3966C39.1823 18.3946 37.6039 19.0311 37.2044 20.5057L35.0405 25.8598L34.8133 26.5335L34.6155 25.8598C33.6324 23.4922 32.6689 21.1128 31.7054 18.751C31.0866 18.5865 30.078 18.3555 29.3672 18.3672H29.142C27.1249 18.3633 25.1783 19.2152 25.1783 21.2205C25.1783 21.338 25.1842 21.4457 25.19 21.5534C24.3832 19.6323 22.6383 18.3026 20.6115 18.3026C20.3709 18.3014 20.1306 18.3191 19.8927 18.3555H14.2058C13.9708 16.92 14.6425 16.1034 15.651 16.1034C16.918 16.1034 17.4605 16.4794 18.0108 16.9846H18.0656C18.0715 16.5048 18.0695 15.9448 18.0695 15.4297C17.7073 15.2613 17.0786 15.1418 15.935 15.1418ZM0 15.1888V29.1655H1.68417V15.1888H0ZM45.0417 15.461V16.9592H45.3139V16.356H45.635L45.8681 16.9592H46.1697L45.8955 16.3129C45.9915 16.264 46.154 16.2111 46.154 15.9467C46.154 15.51 45.827 15.461 45.543 15.461H45.0417ZM45.3139 15.7195H45.6155C45.778 15.7195 45.8681 15.7861 45.8681 15.9193C45.8681 16.0525 45.7663 16.1151 45.639 16.1151H45.3139V15.7195ZM8.17017 18.3222C6.31954 18.3222 5.54012 18.9782 4.92325 19.6401C4.89416 19.6789 4.87105 19.7218 4.85471 19.7674H4.83708V19.6832L4.8175 18.4632H3.34092V29.1655H4.85862V21.338C4.90367 20.3784 6.25688 19.4306 7.31046 19.4306C8.57946 19.4306 9.61737 20.2844 9.61737 21.4653V29.1655H11.1351L11.1312 20.7681C11.0861 19.8223 9.93854 18.3202 8.16821 18.3202L8.17017 18.3222ZM20.4744 19.411C22.3818 19.3777 23.9661 21.4105 24.0092 23.9504C24.0523 26.4904 22.5404 28.576 20.631 28.6113C18.7236 28.6426 17.1413 26.6138 17.0982 24.0738C17.0532 21.5338 18.567 19.4463 20.4744 19.413V19.411Z" fill="#0075CA"/>
</svg>
