<svg width="47" height="47" viewBox="0 0 47 47" fill="none" xmlns="http://www.w3.org/2000/svg">
<path d="M46.9941 21.3135H29.9028V16.9389H46.9941V21.3135Z" fill="#E669A2"/>
<path d="M44.7741 21.3135H29.9028V10.3723H44.7741V21.3135Z" fill="#F3BE26"/>
<path d="M38.6299 21.3135H29.9028V6H38.6299V21.3135Z" fill="#EE9C34"/>
<path d="M40.347 21.3135H29.9028V7.70872H40.347V21.3135Z" fill="#F3BC87"/>
<path d="M29.9005 7.7113V21.3122H38.629V7.7113H29.9005Z" fill="#E3721C"/>
<path d="M21.1514 21.3135H29.9028V23.5011H21.1514V21.3135Z" fill="#AD1B02"/>
<path d="M29.9005 10.3699V21.3121H40.3521V10.3699H29.9005Z" fill="#E88D14"/>
<path d="M29.9005 10.3699V21.3121H38.629V10.3699H29.9005Z" fill="#D85604"/>
<path d="M35.3604 21.3135H29.9028V14.7464H35.3604V21.3135Z" fill="#C14303"/>
<path d="M29.9005 16.942V21.3121H44.7791V16.942H29.9005Z" fill="#DB4E18"/>
<path d="M29.9005 16.942V21.3121H40.3521V16.942H29.9005Z" fill="#D1390D"/>
<path d="M29.9005 16.942V21.3121H38.629V16.942H29.9005Z" fill="#C22303"/>
<path d="M29.9005 16.942V21.3121H35.3657V16.942H29.9005Z" fill="#AD1B02"/>
<path d="M31.8055 29.5527C30.3165 29.8174 29.5224 30.9425 29.5224 32.8948C29.5224 34.8802 30.5812 36.2038 32.1364 36.2038C32.8975 36.2038 33.5593 35.9391 34.9491 35.2442V36.8657C33.2615 37.6598 32.2688 37.8583 30.9452 37.8583C29.4562 37.8583 28.3972 37.4944 27.57 36.6009C26.7096 35.7405 26.2464 34.6155 26.2464 33.3249C26.2464 30.5123 28.3641 28.56 31.4415 28.56C33.46 28.56 34.8829 29.5196 34.8829 30.8763C34.8829 31.7697 34.221 32.3985 33.2614 32.3985C32.7651 32.3985 32.368 32.233 31.8055 31.9352L31.8055 29.5527ZM24.3603 33.325C25.717 31.6374 26.2133 30.9425 26.2133 30.1152C26.2133 29.2879 25.5515 28.5599 24.625 28.5599C24.0956 28.5599 23.5993 28.8577 23.3676 29.1225V32.5969L21.1505 35.575V28.8247H19.0328L15.5252 34.6155V28.8247H14.3339L11.1242 29.5527V30.38L12.878 30.5454V37.726H15.095L18.4702 32.1668V37.726H20.9519L24.3603 33.325ZM4.40699 36.6009H4.90332C6.69013 36.6009 7.68284 35.5089 7.68284 33.3249C7.68284 31.505 6.88875 30.5123 5.39961 30.5123C5.20108 30.5123 4.90327 30.5454 4.40694 30.6446V36.6009H4.40699V36.6009ZM4.40699 40.5055L5.86291 40.8364V41.6637H0.138377V40.8364L1.46193 40.5055V30.5122H0.00601196V29.685L3.48044 28.6261H4.40704V29.8174C6.0284 28.8247 6.59094 28.6593 7.45124 28.6593C9.3705 28.6593 10.8264 30.4461 10.8264 32.9279C10.8264 35.7737 8.87412 37.726 5.89599 37.726C5.5651 37.726 5.00256 37.6929 4.40699 37.6598" fill="black"/>
</svg>
